{
  "accessors": [
    {
      "bufferView": 2,
      "componentType": 5126,
      "count": 384,
      "max": [
        0.16772699356079102,
        0.272938996553421,
        1.2429380416870117
      ],
      "min": [
        -0.07419999688863754,
        -0.3067049980163574,
        1.0207040309906006
      ],
      "type": "VEC3"
    },
    {
      "bufferView": 2,
      "byteOffset": 4608,
      "componentType": 5126,
      "count": 384,
      "max": [
        0.9864853024482727,
        0.9994392395019531,
        0.9897855520248413
      ],
      "min": [
        -0.9864853024482727,
        -0.9994392395019531,
        -0.9897855520248413
      ],
      "type": "VEC3"
    },
    {
      "bufferView": 1,
      "componentType": 5126,
      "count": 384,
      "max": [
        0.719169020652771,
        0.12956799566745758
      ],
      "min": [
        0.6948369741439819,
        0.06780999898910522
      ],
      "type": "VEC2"
    },
    {
      "bufferView": 0,
      "componentType": 5125,
      "count": 768,
      "type": "SCALAR"
    },
    {
      "bufferView": 2,
      "byteOffset": 9216,
      "componentType": 5126,
      "count": 1025,
      "max": [
        0.21374699473381042,
        0.16774600744247437,
        1.6327849626541138
      ],
      "min": [
        -0.1651259958744049,
        -0.10461500287055969,
        0.8077790141105652
      ],
      "type": "VEC3"
    },
    {
      "bufferView": 2,
      "byteOffset": 21516,
      "componentType": 5126,
      "count": 1025,
      "max": [
        0.9992258548736572,
        0.9998742341995239,
        0.9975398182868958
      ],
      "min": [
        -0.997847318649292,
        -0.9949659705162048,
        -0.9999368190765381
      ],
      "type": "VEC3"
    },
    {
      "bufferView": 1,
      "byteOffset": 3072,
      "componentType": 5126,
      "count": 1025,
      "max": [
        0.9957789778709412,
        0.9918929934501648
      ],
      "min": [
        0.007809000089764595,
        0.007815999910235405
      ],
      "type": "VEC2"
    },
    {
      "bufferView": 0,
      "byteOffset": 3072,
      "componentType": 5125,
      "count": 4584,
      "type": "SCALAR"
    },
    {
      "bufferView": 2,
      "byteOffset": 33816,
      "componentType": 5126,
      "count": 4,
      "max": [
        0.4504149854183197,
        0.34189000725746155,
        1.1544580459594727
      ],
      "min": [
        0.010696000419557095,
        0.12246599793434143,
        0.7705479860305786
      ],
      "type": "VEC3"
    },
    {
      "bufferView": 2,
      "byteOffset": 33864,
      "componentType": 5126,
      "count": 4,
      "max": [
        0.10480234026908875,
        0.8698193430900574,
        -0.48211076855659485
      ],
      "min": [
        0.10480234026908875,
        0.8698193430900574,
        -0.48211076855659485
      ],
      "type": "VEC3"
    },
    {
      "bufferView": 1,
      "byteOffset": 11272,
      "componentType": 5126,
      "count": 4,
      "max": [
        1.0,
        1.0
      ],
      "min": [
        0.0,
        0.0
      ],
      "type": "VEC2"
    },
    {
      "bufferView": 0,
      "byteOffset": 21408,
      "componentType": 5125,
      "count": 6,
      "type": "SCALAR"
    },
    {
      "bufferView": 2,
      "byteOffset": 33912,
      "componentType": 5126,
      "count": 2039,
      "max": [
        0.09491399675607681,
        0.20195099711418152,
        1.665634036064148
      ],
      "min": [
        -0.1675640046596527,
        -0.06979099661111832,
        1.383409023284912
      ],
      "type": "VEC3"
    },
    {
      "bufferView": 2,
      "byteOffset": 58380,
      "componentType": 5126,
      "count": 2039,
      "max": [
        0.9996824860572815,
        0.999968409538269,
        0.9968424439430237
      ],
      "min": [
        -0.9999802112579346,
        -0.9999278783798218,
        -0.9992638826370239
      ],
      "type": "VEC3"
    },
    {
      "bufferView": 1,
      "byteOffset": 11304,
      "componentType": 5126,
      "count": 2039,
      "max": [
        0.9919999837875366,
        0.9672409892082214
      ],
      "min": [
        0.00839999970048666,
        0.007991000078618526
      ],
      "type": "VEC2"
    },
    {
      "bufferView": 0,
      "byteOffset": 21432,
      "componentType": 5125,
      "count": 9135,
      "type": "SCALAR"
    },
    {
      "bufferView": 2,
      "byteOffset": 82848,
      "componentType": 5126,
      "count": 204,
      "max": [
        0.3735690116882324,
        0.2641420066356659,
        1.1565279960632324
      ],
      "min": [
        -0.2879540026187897,
        -0.2851499915122986,
        0.6489700078964233
      ],
      "type": "VEC3"
    },
    {
      "bufferView": 2,
      "byteOffset": 85296,
      "componentType": 5126,
      "count": 204,
      "max": [
        0.9709673523902893,
        0.9829634428024292,
        -0.0017999366391450167
      ],
      "min": [
        -0.9672114849090576,
        -0.981553852558136,
        -0.6710888147354126
      ],
      "type": "VEC3"
    },
    {
      "bufferView": 1,
      "byteOffset": 27616,
      "componentType": 5126,
      "count": 204,
      "max": [
        0.9839010238647461,
        0.8304100036621094
      ],
      "min": [
        0.16950500011444092,
        0.30990999937057495
      ],
      "type": "VEC2"
    },
    {
      "bufferView": 0,
      "byteOffset": 57972,
      "componentType": 5125,
      "count": 1041,
      "type": "SCALAR"
    },
    {
      "bufferView": 2,
      "byteOffset": 87744,
      "componentType": 5126,
      "count": 3520,
      "max": [
        0.29995301365852356,
        0.2875269949436188,
        1.6565849781036377
      ],
      "min": [
        -0.3352150022983551,
        -0.280239999294281,
        -0.002010999945923686
      ],
      "type": "VEC3"
    },
    {
      "bufferView": 2,
      "byteOffset": 129984,
      "componentType": 5126,
      "count": 3520,
      "max": [
        0.9991828203201294,
        0.9997147917747498,
        0.9997572302818298
      ],
      "min": [
        -0.9978646636009216,
        -0.9996204972267151,
        -0.99993896484375
      ],
      "type": "VEC3"
    },
    {
      "bufferView": 1,
      "byteOffset": 29248,
      "componentType": 5126,
      "count": 3520,
      "max": [
        0.9835820198059082,
        0.989978015422821
      ],
      "min": [
        0.007811000104993582,
        0.007807000074535608
      ],
      "type": "VEC2"
    },
    {
      "bufferView": 0,
      "byteOffset": 62136,
      "componentType": 5125,
      "count": 14487,
      "type": "SCALAR"
    },
    {
      "bufferView": 2,
      "byteOffset": 172224,
      "componentType": 5126,
      "count": 66,
      "max": [
        0.02162499912083149,
        -0.008334999904036522,
        1.5300049781799316
      ],
      "min": [
        -0.09713699668645859,
        -0.02413400076329708,
        1.4678070545196533
      ],
      "type": "VEC3"
    },
    {
      "bufferView": 2,
      "byteOffset": 173016,
      "componentType": 5126,
      "count": 66,
      "max": [
        0.46840012073516846,
        -0.8570380210876465,
        0.19879654049873352
      ],
      "min": [
        -0.4843081831932068,
        -0.9997958540916443,
        -0.33138760924339294
      ],
      "type": "VEC3"
    },
    {
      "bufferView": 1,
      "byteOffset": 57408,
      "componentType": 5126,
      "count": 66,
      "max": [
        0.9136469960212708,
        0.996392011642456
      ],
      "min": [
        0.08635400235652924,
        0.0036100000143051147
      ],
      "type": "VEC2"
    },
    {
      "bufferView": 0,
      "byteOffset": 120084,
      "componentType": 5125,
      "count": 288,
      "type": "SCALAR"
    },
    {
      "bufferView": 2,
      "byteOffset": 173808,
      "componentType": 5126,
      "count": 669,
      "max": [
        0.2910880148410797,
        0.9443439841270447,
        1.3129719495773315
      ],
      "min": [
        0.06741499900817871,
        -0.5287529826164246,
        0.4577929973602295
      ],
      "type": "VEC3"
    },
    {
      "bufferView": 2,
      "byteOffset": 181836,
      "componentType": 5126,
      "count": 669,
      "max": [
        0.9998118281364441,
        0.9991001486778259,
        0.9910410046577454
      ],
      "min": [
        -0.9930016398429871,
        -0.9989506006240845,
        -0.9948083758354187
      ],
      "type": "VEC3"
    },
    {
      "bufferView": 1,
      "byteOffset": 57936,
      "componentType": 5126,
      "count": 669,
      "max": [
        0.9569429755210876,
        0.9668520092964172
      ],
      "min": [
        0.0314599983394146,
        0.031300000846385956
      ],
      "type": "VEC2"
    },
    {
      "bufferView": 0,
      "byteOffset": 121236,
      "componentType": 5125,
      "count": 3006,
      "type": "SCALAR"
    }
  ],
  "asset": {
    "extras": {
      "author": "JustNerro (https://sketchfab.com/JustNerro)",
      "license": "CC-BY-SA-4.0 (http://creativecommons.org/licenses/by-sa/4.0/)",
      "source": "https://sketchfab.com/3d-models/yorha-number-2-type-b-5a02e09c588444ef8f90aeb3bbe8ffd4",
      "title": "Yorha Number 2 Type B"
    },
    "generator": "Sketchfab-15.50.0",
    "version": "2.0"
  },
  "bufferViews": [
    {
      "buffer": 0,
      "byteLength": 133260,
      "name": "floatBufferViews",
      "target": 34963
    },
    {
      "buffer": 0,
      "byteLength": 63288,
      "byteOffset": 133260,
      "byteStride": 8,
      "name": "floatBufferViews",
      "target": 34962
    },
    {
      "buffer": 0,
      "byteLength": 189864,
      "byteOffset": 196548,
      "byteStride": 12,
      "name": "floatBufferViews",
      "target": 34962
    }
  ],
  "buffers": [
    {
      "byteLength": 386412,
      "uri": "scene.bin"
    }
  ],
  "extensionsRequired": [
    "KHR_materials_pbrSpecularGlossiness"
  ],
  "extensionsUsed": [
    "KHR_materials_pbrSpecularGlossiness",
    "KHR_materials_emissive_strength"
  ],
  "images": [
    {
      "uri": "textures/cloth_diffuse.png"
    },
    {
      "uri": "textures/cloth_feathers_diffuse.png"
    },
    {
      "uri": "textures/hair_diffuse.png"
    },
    {
      "uri": "textures/ring_diffuse.png"
    },
    {
      "uri": "textures/ring_emissive.png"
    },
    {
      "uri": "textures/skin_diffuse.png"
    },
    {
      "uri": "textures/sword_diffuse.png"
    }
  ],
  "materials": [
    {
      "doubleSided": true,
      "extensions": {
        "KHR_materials_pbrSpecularGlossiness": {
          "diffuseFactor": [
            1.0,
            1.0,
            1.0,
            1.0
          ],
          "diffuseTexture": {
            "index": 0
          },
          "glossinessFactor": 0.4,
          "specularFactor": [
            0.0,
            0.0,
            0.0
          ]
        }
      },
      "name": "cloth"
    },
    {
      "doubleSided": true,
      "extensions": {
        "KHR_materials_pbrSpecularGlossiness": {
          "diffuseFactor": [
            1.0,
            1.0,
            1.0,
            1.0
          ],
          "diffuseTexture": {
            "index": 0
          },
          "glossinessFactor": 0.4,
          "specularFactor": [
            0.0,
            0.0,
            0.0
          ]
        }
      },
      "name": "cloth2"
    },
    {
      "alphaCutoff": 0.4490990504742546,
      "alphaMode": "MASK",
      "doubleSided": true,
      "extensions": {
        "KHR_materials_pbrSpecularGlossiness": {
          "diffuseFactor": [
            1.0,
            1.0,
            1.0,
            1.0
          ],
          "diffuseTexture": {
            "index": 1
          },
          "glossinessFactor": 0.4,
          "specularFactor": [
            0.0,
            0.0,
            0.0
          ]
        }
      },
      "name": "cloth_feathers"
    },
    {
      "doubleSided": true,
      "extensions": {
        "KHR_materials_pbrSpecularGlossiness": {
          "diffuseFactor": [
            1.0,
            1.0,
            1.0,
            1.0
          ],
          "glossinessFactor": 0.4,
          "specularFactor": [
            0.0,
            0.0,
            0.0
          ]
        }
      },
      "name": "eyes"
    },
    {
      "doubleSided": true,
      "extensions": {
        "KHR_materials_pbrSpecularGlossiness": {
          "diffuseFactor": [
            1.0,
            1.0,
            1.0,
            1.0
          ],
          "diffuseTexture": {
            "index": 2
          },
          "glossinessFactor": 0.4,
          "specularFactor": [
            0.0,
            0.0,
            0.0
          ]
        }
      },
      "name": "hair"
    },
    {
      "alphaCutoff": 0.07257244765516349,
      "alphaMode": "MASK",
      "doubleSided": true,
      "emissiveFactor": [
        1.0,
        1.0,
        1.0
      ],
      "emissiveTexture": {
        "index": 4
      },
      "extensions": {
        "KHR_materials_emissive_strength": {
          "emissiveStrength": 1.940326421129348
        },
        "KHR_materials_pbrSpecularGlossiness": {
          "diffuseFactor": [
            1.0,
            1.0,
            1.0,
            1.0
          ],
          "diffuseTexture": {
            "index": 3
          },
          "glossinessFactor": 0.4,
          "specularFactor": [
            0.0,
            0.0,
            0.0
          ]
        }
      },
      "name": "ring"
    },
    {
      "doubleSided": true,
      "extensions": {
        "KHR_materials_pbrSpecularGlossiness": {
          "diffuseFactor": [
            1.0,
            1.0,
            1.0,
            1.0
          ],
          "diffuseTexture": {
            "index": 5
          },
          "glossinessFactor": 0.4,
          "specularFactor": [
            0.0,
            0.0,
            0.0
          ]
        }
      },
      "name": "skin"
    },
    {
      "doubleSided": true,
      "extensions": {
        "KHR_materials_pbrSpecularGlossiness": {
          "diffuseFactor": [
            1.0,
            1.0,
            1.0,
            1.0
          ],
          "diffuseTexture": {
            "index": 6
          },
          "glossinessFactor": 0.4,
          "specularFactor": [
            0.0,
            0.0,
            0.0
          ]
        }
      },
      "name": "sword"
    }
  ],
  "meshes": [
    {
      "name": "Object_0",
      "primitives": [
        {
          "attributes": {
            "NORMAL": 1,
            "POSITION": 0,
            "TEXCOORD_0": 2
          },
          "indices": 3,
          "material": 2,
          "mode": 4
        }
      ]
    },
    {
      "name": "Object_1",
      "primitives": [
        {
          "attributes": {
            "NORMAL": 5,
            "POSITION": 4,
            "TEXCOORD_0": 6
          },
          "indices": 7,
          "material": 6,
          "mode": 4
        }
      ]
    },
    {
      "name": "Object_2",
      "primitives": [
        {
          "attributes": {
            "NORMAL": 9,
            "POSITION": 8,
            "TEXCOORD_0": 10
          },
          "indices": 11,
          "material": 5,
          "mode": 4
        }
      ]
    },
    {
      "name": "Object_3",
      "primitives": [
        {
          "attributes": {
            "NORMAL": 13,
            "POSITION": 12,
            "TEXCOORD_0": 14
          },
          "indices": 15,
          "material": 4,
          "mode": 4
        }
      ]
    },
    {
      "name": "Object_4",
      "primitives": [
        {
          "attributes": {
            "NORMAL": 17,
            "POSITION": 16,
            "TEXCOORD_0": 18
          },
          "indices": 19,
          "material": 1,
          "mode": 4
        }
      ]
    },
    {
      "name": "Object_5",
      "primitives": [
        {
          "attributes": {
            "NORMAL": 21,
            "POSITION": 20,
            "TEXCOORD_0": 22
          },
          "indices": 23,
          "material": 0,
          "mode": 4
        }
      ]
    },
    {
      "name": "Object_6",
      "primitives": [
        {
          "attributes": {
            "NORMAL": 25,
            "POSITION": 24,
            "TEXCOORD_0": 26
          },
          "indices": 27,
          "material": 3,
          "mode": 4
        }
      ]
    },
    {
      "name": "Object_7",
      "primitives": [
        {
          "attributes": {
            "NORMAL": 29,
            "POSITION": 28,
            "TEXCOORD_0": 30
          },
          "indices": 31,
          "material": 7,
          "mode": 4
        }
      ]
    }
  ],
  "nodes": [
    {
      "children": [
        1
      ],
      "matrix": [
        1.0,
        0.0,
        0.0,
        0.0,
        0.0,
        2.220446049250313e-16,
        -1.0,
        0.0,
        0.0,
        1.0,
        2.220446049250313e-16,
        0.0,
        0.0,
        0.0,
        0.0,
        1.0
      ],
      "name": "Sketchfab_model"
    },
    {
      "children": [
        2,
        3,
        4,
        5,
        6,
        7,
        8,
        9
      ],
      "name": "2B nerro_02.obj.cleaner.materialmerger.gles"
    },
    {
      "mesh": 0,
      "name": "Object_2"
    },
    {
      "mesh": 1,
      "name": "Object_3"
    },
    {
      "mesh": 2,
      "name": "Object_4"
    },
    {
      "mesh": 3,
      "name": "Object_5"
    },
    {
      "mesh": 4,
      "name": "Object_6"
    },
    {
      "mesh": 5,
      "name": "Object_7"
    },
    {
      "mesh": 6,
      "name": "Object_8"
    },
    {
      "mesh": 7,
      "name": "Object_9"
    }
  ],
  "samplers": [
    {
      "magFilter": 9729,
      "minFilter": 9987,
      "wrapS": 10497,
      "wrapT": 10497
    }
  ],
  "scene": 0,
  "scenes": [
    {
      "name": "Sketchfab_Scene",
      "nodes": [
        0
      ]
    }
  ],
  "textures": [
    {
      "sampler": 0,
      "source": 0
    },
    {
      "sampler": 0,
      "source": 1
    },
    {
      "sampler": 0,
      "source": 2
    },
    {
      "sampler": 0,
      "source": 3
    },
    {
      "sampler": 0,
      "source": 4
    },
    {
      "sampler": 0,
      "source": 5
    },
    {
      "sampler": 0,
      "source": 6
    }
  ]
}
